<?xml version="1.0" encoding="UTF-8" standalone="no"?>
<!-- Created with Inkscape (http://www.inkscape.org/) -->

<svg
   width="96"
   height="96"
   viewBox="0 0 96 96"
   version="1.1"
   id="svg135"
   inkscape:version="1.3.1 (91b66b0783, 2023-11-16, custom)"
   sodipodi:docname="numeral-2.svg"
   inkscape:export-filename="numeral.png"
   inkscape:export-xdpi="96"
   inkscape:export-ydpi="96"
   xmlns:inkscape="http://www.inkscape.org/namespaces/inkscape"
   xmlns:sodipodi="http://sodipodi.sourceforge.net/DTD/sodipodi-0.dtd"
   xmlns="http://www.w3.org/2000/svg"
   xmlns:svg="http://www.w3.org/2000/svg">
  <sodipodi:namedview
     id="namedview137"
     pagecolor="#505050"
     bordercolor="#ffffff"
     borderopacity="1"
     inkscape:showpageshadow="0"
     inkscape:pageopacity="0"
     inkscape:pagecheckerboard="1"
     inkscape:deskcolor="#505050"
     inkscape:document-units="px"
     showgrid="false"
     inkscape:zoom="5.8511223"
     inkscape:cx="21.363423"
     inkscape:cy="47.512252"
     inkscape:window-width="1920"
     inkscape:window-height="1004"
     inkscape:window-x="0"
     inkscape:window-y="0"
     inkscape:window-maximized="1"
     inkscape:current-layer="layer1" />
  <defs
     id="defs132">
    <filter
       style="color-interpolation-filters:sRGB"
       inkscape:label="Drop Shadow"
       id="filter4132"
       x="-0.13819163"
       y="-0.096125163"
       width="1.2763833"
       height="1.1922503">
      <feFlood
         flood-opacity="0.80401529636711278"
         flood-color="rgb(0,0,0)"
         result="flood"
         id="feFlood4122" />
      <feComposite
         in="flood"
         in2="SourceGraphic"
         operator="in"
         result="composite1"
         id="feComposite4124" />
      <feGaussianBlur
         in="composite1"
         stdDeviation="3"
         result="blur"
         id="feGaussianBlur4126" />
      <feOffset
         dx="0"
         dy="0"
         result="offset"
         id="feOffset4128" />
      <feComposite
         in="SourceGraphic"
         in2="offset"
         operator="over"
         result="composite2"
         id="feComposite4130" />
    </filter>
  </defs>
  <g
     inkscape:label="Layer 1"
     inkscape:groupmode="layer"
     id="layer1">
    <path
       style="font-weight:bold;font-size:104px;line-height:1;font-family:'Arial Rounded MT Bold';-inkscape-font-specification:'Arial Rounded MT Bold,  Bold';text-align:center;baseline-shift:baseline;text-anchor:middle;fill:#ffffff;stroke-width:0;filter:url(#filter4132)"
       d="m 39.417969,73.466797 h 26.507812 q 3.960938,0 6.042969,1.625 2.082031,1.625 2.082031,4.417969 0,2.488281 -1.675781,4.214843 -1.625,1.726563 -4.976563,1.726563 h -37.375 q -3.808593,0 -5.941406,-2.082031 -2.132812,-2.132813 -2.132812,-4.976563 0,-1.828125 1.371093,-4.824219 1.371094,-3.046875 2.996094,-4.773437 6.753906,-7.007813 12.1875,-11.984375 5.433594,-5.027344 7.769531,-6.601563 4.164063,-2.945312 6.90625,-5.890625 2.792969,-2.996093 4.214844,-6.09375 1.472656,-3.148437 1.472656,-6.144531 0,-3.25 -1.574218,-5.789062 -1.523438,-2.589844 -4.214844,-4.011719 -2.640625,-1.421875 -5.789063,-1.421875 -6.652343,0 -10.460937,5.839844 -0.507813,0.761718 -1.726563,4.164062 -1.167968,3.402344 -2.691406,5.230469 -1.472656,1.828125 -4.367187,1.828125 -2.539063,0 -4.214844,-1.675781 -1.675781,-1.675782 -1.675781,-4.570313 0,-3.503906 1.574218,-7.3125 1.574219,-3.808594 4.671875,-6.90625 3.148438,-3.097656 7.921875,-4.976562 4.824219,-1.929688 11.273438,-1.929688 7.769531,0 13.253906,2.4375 3.554688,1.625 6.246094,4.46875 2.691406,2.84375 4.164062,6.601563 1.523438,3.707031 1.523438,7.71875 0,6.296875 -3.148438,11.476562 -3.097656,5.128906 -6.347656,8.074219 -3.25,2.894531 -10.917969,9.140625 Q 44.75,66.712891 41.90625,70.166016 40.6875,71.537109 39.417969,73.466797 Z"
       id="text334"
       aria-label="2" />
  </g>
</svg>
