<?xml version="1.0" encoding="UTF-8" standalone="no"?>
<!-- Created with Inkscape (http://www.inkscape.org/) -->

<svg
   width="96"
   height="96"
   viewBox="0 0 96 96"
   version="1.1"
   id="svg135"
   inkscape:version="1.3.1 (91b66b0783, 2023-11-16, custom)"
   sodipodi:docname="numeral-4.svg"
   inkscape:export-filename="4.png"
   inkscape:export-xdpi="96"
   inkscape:export-ydpi="96"
   xmlns:inkscape="http://www.inkscape.org/namespaces/inkscape"
   xmlns:sodipodi="http://sodipodi.sourceforge.net/DTD/sodipodi-0.dtd"
   xmlns="http://www.w3.org/2000/svg"
   xmlns:svg="http://www.w3.org/2000/svg">
  <sodipodi:namedview
     id="namedview137"
     pagecolor="#505050"
     bordercolor="#ffffff"
     borderopacity="1"
     inkscape:showpageshadow="0"
     inkscape:pageopacity="0"
     inkscape:pagecheckerboard="1"
     inkscape:deskcolor="#505050"
     inkscape:document-units="px"
     showgrid="false"
     inkscape:zoom="5.8511223"
     inkscape:cx="21.363423"
     inkscape:cy="47.512252"
     inkscape:window-width="1920"
     inkscape:window-height="1004"
     inkscape:window-x="0"
     inkscape:window-y="0"
     inkscape:window-maximized="1"
     inkscape:current-layer="layer1" />
  <defs
     id="defs132">
    <filter
       style="color-interpolation-filters:sRGB"
       inkscape:label="Drop Shadow"
       id="filter4132"
       x="-0.12275724"
       y="-0.093897096"
       width="1.2455145"
       height="1.1877942">
      <feFlood
         flood-opacity="0.80401529636711278"
         flood-color="rgb(0,0,0)"
         result="flood"
         id="feFlood4122" />
      <feComposite
         in="flood"
         in2="SourceGraphic"
         operator="in"
         result="composite1"
         id="feComposite4124" />
      <feGaussianBlur
         in="composite1"
         stdDeviation="3"
         result="blur"
         id="feGaussianBlur4126" />
      <feOffset
         dx="0"
         dy="0"
         result="offset"
         id="feOffset4128" />
      <feComposite
         in="SourceGraphic"
         in2="offset"
         operator="over"
         result="composite2"
         id="feComposite4130" />
    </filter>
  </defs>
  <g
     inkscape:label="Layer 1"
     inkscape:groupmode="layer"
     id="layer1">
    <path
       style="font-weight:bold;font-size:104px;line-height:1;font-family:'Arial Rounded MT Bold';-inkscape-font-specification:'Arial Rounded MT Bold,  Bold';text-align:center;baseline-shift:baseline;text-anchor:middle;fill:#ffffff;stroke-width:0;filter:url(#filter4132)"
       d="M 53.814453,78.621094 V 69.175781 H 28.322266 q -4.824219,0 -7.261719,-2.183594 -2.386719,-2.183593 -2.386719,-5.941406 0,-0.964844 0.355469,-1.929687 0.355469,-1.015625 1.066406,-2.082032 0.710938,-1.117187 1.472656,-2.132812 0.761719,-1.015625 1.878907,-2.488281 L 50.361328,16.414062 q 2.640625,-3.554687 4.316406,-5.128906 1.726563,-1.6249997 4.113282,-1.6249997 7.71875,0 7.71875,8.8359377 v 39.304687 h 2.183593 q 3.910157,0 6.246094,1.066406 2.386719,1.066407 2.386719,4.671875 0,2.945313 -1.929688,4.316407 -1.929687,1.320312 -5.789062,1.320312 h -3.097656 v 9.445313 q 0,3.910156 -1.726563,5.839843 -1.726562,1.878907 -4.621094,1.878907 -2.84375,0 -4.621093,-1.929688 -1.726563,-1.980469 -1.726563,-5.789062 z M 31.978516,57.800781 H 53.814453 V 28.296875 Z"
       id="text334"
       aria-label="4" />
  </g>
</svg>
