<?xml version="1.0" encoding="UTF-8" standalone="no"?>
<!-- Created with Inkscape (http://www.inkscape.org/) -->

<svg
   width="96"
   height="96"
   viewBox="0 0 96 96"
   version="1.1"
   id="svg135"
   inkscape:version="1.3.1 (91b66b0783, 2023-11-16, custom)"
   sodipodi:docname="numeral-3.svg"
   inkscape:export-filename="3.png"
   inkscape:export-xdpi="96"
   inkscape:export-ydpi="96"
   xmlns:inkscape="http://www.inkscape.org/namespaces/inkscape"
   xmlns:sodipodi="http://sodipodi.sourceforge.net/DTD/sodipodi-0.dtd"
   xmlns="http://www.w3.org/2000/svg"
   xmlns:svg="http://www.w3.org/2000/svg">
  <sodipodi:namedview
     id="namedview137"
     pagecolor="#505050"
     bordercolor="#ffffff"
     borderopacity="1"
     inkscape:showpageshadow="0"
     inkscape:pageopacity="0"
     inkscape:pagecheckerboard="1"
     inkscape:deskcolor="#505050"
     inkscape:document-units="px"
     showgrid="false"
     inkscape:zoom="5.8511223"
     inkscape:cx="21.363423"
     inkscape:cy="47.512252"
     inkscape:window-width="1920"
     inkscape:window-height="1004"
     inkscape:window-x="0"
     inkscape:window-y="0"
     inkscape:window-maximized="1"
     inkscape:current-layer="layer1" />
  <defs
     id="defs132">
    <filter
       style="color-interpolation-filters:sRGB"
       inkscape:label="Drop Shadow"
       id="filter4132"
       x="-0.13846154"
       y="-0.094649276"
       width="1.2769231"
       height="1.1892986">
      <feFlood
         flood-opacity="0.80401529636711278"
         flood-color="rgb(0,0,0)"
         result="flood"
         id="feFlood4122" />
      <feComposite
         in="flood"
         in2="SourceGraphic"
         operator="in"
         result="composite1"
         id="feComposite4124" />
      <feGaussianBlur
         in="composite1"
         stdDeviation="3"
         result="blur"
         id="feGaussianBlur4126" />
      <feOffset
         dx="0"
         dy="0"
         result="offset"
         id="feOffset4128" />
      <feComposite
         in="SourceGraphic"
         in2="offset"
         operator="over"
         result="composite2"
         id="feComposite4130" />
    </filter>
  </defs>
  <g
     inkscape:label="Layer 1"
     inkscape:groupmode="layer"
     id="layer1">
    <path
       style="font-weight:bold;font-size:104px;line-height:1;font-family:'Arial Rounded MT Bold';-inkscape-font-specification:'Arial Rounded MT Bold,  Bold';text-align:center;baseline-shift:baseline;text-anchor:middle;fill:#ffffff;stroke-width:0;filter:url(#filter4132)"
       d="m 45.410156,39.824219 q 4.671875,0 8.023438,-2.742188 3.402343,-2.742187 3.402343,-7.871094 0,-3.910156 -2.691406,-6.703125 -2.691406,-2.84375 -7.261719,-2.84375 -3.097656,0 -5.128906,0.863282 -1.980469,0.863281 -3.148437,2.285156 -1.167969,1.421875 -2.234375,3.65625 -1.015625,2.234375 -1.878907,4.214844 -0.507812,1.066406 -1.828125,1.675781 -1.320312,0.609375 -3.046875,0.609375 -2.03125,0 -3.757812,-1.625 -1.675781,-1.675781 -1.675781,-4.417969 0,-2.640625 1.574218,-5.535156 1.625,-2.945313 4.671875,-5.585937 3.097657,-2.640625 7.667969,-4.214844 4.570313,-1.6250002 10.207031,-1.6250002 4.925782,0 8.988282,1.3710942 4.0625,1.320312 7.058593,3.859375 2.996094,2.539062 4.519532,5.890624 1.523437,3.351563 1.523437,7.210938 0,5.078125 -2.234375,8.734375 -2.183594,3.605469 -6.296875,7.058594 3.960938,2.132812 6.652344,4.875 2.742187,2.742187 4.113281,6.09375 Q 74,58.359375 74,62.21875 q 0,4.621094 -1.878906,8.9375 -1.828125,4.316406 -5.433594,7.71875 -3.605469,3.351562 -8.582031,5.28125 -4.925782,1.878906 -10.917969,1.878906 -6.09375,0 -10.917969,-2.183594 Q 31.445312,81.667969 28.296875,78.417969 25.199219,75.117187 23.574219,71.613281 22,68.109375 22,65.824219 q 0,-2.945313 1.878906,-4.722657 1.929688,-1.828125 4.773438,-1.828125 1.421875,0 2.742187,0.863282 1.320313,0.8125 1.726563,1.980468 2.640625,7.058594 5.636718,10.511719 3.046875,3.402344 8.53125,3.402344 3.148438,0 6.042969,-1.523438 2.945313,-1.574218 4.824219,-4.621093 1.929687,-3.046875 1.929687,-7.058594 0,-5.941406 -3.25,-9.292969 -3.25,-3.402344 -9.039062,-3.402344 -1.015625,0 -3.148438,0.203125 -2.132812,0.203125 -2.742187,0.203125 -2.792969,0 -4.316406,-1.371093 -1.523438,-1.421875 -1.523438,-3.910157 0,-2.4375 1.828125,-3.910156 1.828125,-1.523437 5.433594,-1.523437 z"
       id="text334"
       aria-label="3" />
  </g>
</svg>
