<?xml version="1.0" encoding="UTF-8" standalone="no"?>
<!-- Created with Inkscape (http://www.inkscape.org/) -->

<svg
   width="96"
   height="96"
   viewBox="0 0 96 96"
   version="1.1"
   id="svg135"
   inkscape:version="1.3.1 (91b66b0783, 2023-11-16, custom)"
   sodipodi:docname="numeral-9.svg"
   inkscape:export-filename="9.png"
   inkscape:export-xdpi="96"
   inkscape:export-ydpi="96"
   xmlns:inkscape="http://www.inkscape.org/namespaces/inkscape"
   xmlns:sodipodi="http://sodipodi.sourceforge.net/DTD/sodipodi-0.dtd"
   xmlns="http://www.w3.org/2000/svg"
   xmlns:svg="http://www.w3.org/2000/svg">
  <sodipodi:namedview
     id="namedview137"
     pagecolor="#505050"
     bordercolor="#ffffff"
     borderopacity="1"
     inkscape:showpageshadow="0"
     inkscape:pageopacity="0"
     inkscape:pagecheckerboard="1"
     inkscape:deskcolor="#505050"
     inkscape:document-units="px"
     showgrid="false"
     inkscape:zoom="5.8511223"
     inkscape:cx="21.363423"
     inkscape:cy="47.512252"
     inkscape:window-width="1920"
     inkscape:window-height="1004"
     inkscape:window-x="0"
     inkscape:window-y="0"
     inkscape:window-maximized="1"
     inkscape:current-layer="layer1" />
  <defs
     id="defs132">
    <filter
       style="color-interpolation-filters:sRGB"
       inkscape:label="Drop Shadow"
       id="filter4132"
       x="-0.13554934"
       y="-0.094649276"
       width="1.2710987"
       height="1.1892986">
      <feFlood
         flood-opacity="0.80401529636711278"
         flood-color="rgb(0,0,0)"
         result="flood"
         id="feFlood4122" />
      <feComposite
         in="flood"
         in2="SourceGraphic"
         operator="in"
         result="composite1"
         id="feComposite4124" />
      <feGaussianBlur
         in="composite1"
         stdDeviation="3"
         result="blur"
         id="feGaussianBlur4126" />
      <feOffset
         dx="0"
         dy="0"
         result="offset"
         id="feOffset4128" />
      <feComposite
         in="SourceGraphic"
         in2="offset"
         operator="over"
         result="composite2"
         id="feComposite4130" />
    </filter>
  </defs>
  <g
     inkscape:label="Layer 1"
     inkscape:groupmode="layer"
     id="layer1">
    <path
       style="font-weight:bold;font-size:104px;line-height:1;font-family:'Arial Rounded MT Bold';-inkscape-font-specification:'Arial Rounded MT Bold,  Bold';text-align:center;baseline-shift:baseline;text-anchor:middle;fill:#ffffff;stroke-width:0;filter:url(#filter4132)"
       d="m 60.441406,51.503906 q -3.351562,3.960938 -7.515625,5.992188 -4.113281,1.980468 -9.140625,1.980468 -4.773437,0 -8.9375,-1.828125 -4.113281,-1.878906 -7.160156,-5.179687 -2.996094,-3.351563 -4.621094,-7.769531 -1.625,-4.46875 -1.625,-9.34375 0,-5.230469 1.828125,-9.902344 1.828125,-4.722656 5.230469,-8.175781 3.402344,-3.453125 8.074219,-5.382813 4.722656,-1.9296872 10.410156,-1.9296872 6.550781,0 11.679687,2.3867192 5.128907,2.386718 8.632813,6.957031 3.503906,4.519531 5.382812,11.425781 1.878907,6.90625 1.878907,15.640625 0,9.75 -1.980469,17.214844 -1.980469,7.414062 -5.789063,12.492187 -3.757812,5.027344 -9.039062,7.515625 -5.28125,2.4375 -11.984375,2.4375 -6.601563,0 -11.476563,-2.488281 -4.875,-2.539063 -7.414062,-6.246094 -2.539063,-3.757812 -2.539063,-7.210937 0,-2.132813 1.574219,-3.808594 1.574219,-1.675781 4.011719,-1.675781 2.234375,0 4.011719,1.269531 1.777343,1.21875 2.691406,3.707031 1.117187,3.046875 3.707031,4.925781 2.589844,1.828125 5.839844,1.828125 2.894531,0 5.484375,-1.472656 2.589844,-1.472656 4.417969,-4.164062 3.65625,-5.433594 4.367187,-19.195313 z M 59.273437,35.964844 q 0,-3.453125 -0.964843,-6.347657 -0.914063,-2.945312 -2.640625,-5.078125 -1.675782,-2.132812 -4.0625,-3.351562 -2.335938,-1.21875 -5.128907,-1.21875 -4.824218,0 -8.175781,4.164062 -3.351562,4.113282 -3.351562,10.917969 0,6.753906 3.351562,10.765625 3.351563,4.011719 8.480469,4.011719 3.148437,0 5.992187,-1.625 2.894532,-1.675781 4.671875,-4.824219 1.828125,-3.148437 1.828125,-7.414062 z"
       id="text334"
       aria-label="9" />
  </g>
</svg>
