<?xml version="1.0" encoding="UTF-8" standalone="no"?>
<!-- Created with Inkscape (http://www.inkscape.org/) -->

<svg
   width="96"
   height="96"
   viewBox="0 0 96 96"
   version="1.1"
   id="svg135"
   inkscape:version="1.3.1 (91b66b0783, 2023-11-16, custom)"
   sodipodi:docname="numeral-5.svg"
   inkscape:export-filename="5.png"
   inkscape:export-xdpi="96"
   inkscape:export-ydpi="96"
   xmlns:inkscape="http://www.inkscape.org/namespaces/inkscape"
   xmlns:sodipodi="http://sodipodi.sourceforge.net/DTD/sodipodi-0.dtd"
   xmlns="http://www.w3.org/2000/svg"
   xmlns:svg="http://www.w3.org/2000/svg">
  <sodipodi:namedview
     id="namedview137"
     pagecolor="#505050"
     bordercolor="#ffffff"
     borderopacity="1"
     inkscape:showpageshadow="0"
     inkscape:pageopacity="0"
     inkscape:pagecheckerboard="1"
     inkscape:deskcolor="#505050"
     inkscape:document-units="px"
     showgrid="false"
     inkscape:zoom="5.8511223"
     inkscape:cx="21.363423"
     inkscape:cy="47.512252"
     inkscape:window-width="1920"
     inkscape:window-height="1004"
     inkscape:window-x="0"
     inkscape:window-y="0"
     inkscape:window-maximized="1"
     inkscape:current-layer="layer1" />
  <defs
     id="defs132">
    <filter
       style="color-interpolation-filters:sRGB"
       inkscape:label="Drop Shadow"
       id="filter4132"
       x="-0.13765497"
       y="-0.095865191"
       width="1.2753099"
       height="1.1917304">
      <feFlood
         flood-opacity="0.80401529636711278"
         flood-color="rgb(0,0,0)"
         result="flood"
         id="feFlood4122" />
      <feComposite
         in="flood"
         in2="SourceGraphic"
         operator="in"
         result="composite1"
         id="feComposite4124" />
      <feGaussianBlur
         in="composite1"
         stdDeviation="3"
         result="blur"
         id="feGaussianBlur4126" />
      <feOffset
         dx="0"
         dy="0"
         result="offset"
         id="feOffset4128" />
      <feComposite
         in="SourceGraphic"
         in2="offset"
         operator="over"
         result="composite2"
         id="feComposite4130" />
    </filter>
  </defs>
  <g
     inkscape:label="Layer 1"
     inkscape:groupmode="layer"
     id="layer1">
    <path
       style="font-weight:bold;font-size:104px;line-height:1;font-family:'Arial Rounded MT Bold';-inkscape-font-specification:'Arial Rounded MT Bold,  Bold';text-align:center;baseline-shift:baseline;text-anchor:middle;fill:#ffffff;stroke-width:0;filter:url(#filter4132)"
       d="M 64.453125,22.380859 H 40.332031 L 37.4375,38.833984 q 7.210937,-3.859375 13.304687,-3.859375 4.875,0 9.089844,1.828125 4.265625,1.828125 7.464844,5.078125 3.199219,3.199219 5.027344,7.617188 1.828125,4.417969 1.828125,9.496094 0,7.363281 -3.300782,13.40625 -3.300781,6.042968 -9.546875,9.597656 -6.195312,3.554687 -14.320312,3.554687 -9.089844,0 -14.777344,-3.351562 -5.636719,-3.351563 -8.023437,-7.667969 -2.335938,-4.367187 -2.335938,-7.617187 0,-1.980469 1.625,-3.757813 1.675781,-1.777344 4.164063,-1.777344 4.265625,0 6.347656,4.925782 2.03125,4.519531 5.484375,7.058593 3.453125,2.488282 7.71875,2.488282 3.910156,0 6.855469,-2.03125 2.945312,-2.03125 4.519531,-5.585938 1.625,-3.554687 1.625,-8.074219 0,-4.875 -1.726563,-8.328125 -1.726562,-3.453125 -4.621093,-5.128906 -2.894532,-1.726562 -6.449219,-1.726562 -4.367188,0 -6.246094,1.066406 -1.878906,1.066406 -5.433594,3.757812 -3.503906,2.640625 -5.789062,2.640625 -2.488281,0 -4.417969,-1.777343 -1.929687,-1.828125 -1.929687,-4.113282 0,-0.253906 0.558593,-3.453125 l 4.265625,-24.324218 q 0.710938,-4.367188 2.640625,-6.347657 1.929688,-1.980468 6.296875,-1.980468 h 26.8125 q 7.921875,0 7.921875,6.042968 0,2.640625 -1.929687,4.265625 -1.929688,1.625 -5.6875,1.625 z"
       id="text334"
       aria-label="5" />
  </g>
</svg>
