<?xml version="1.0" encoding="UTF-8" standalone="no"?>
<!-- Created with Inkscape (http://www.inkscape.org/) -->

<svg
   width="96"
   height="96"
   viewBox="0 0 96 96"
   version="1.1"
   id="svg135"
   inkscape:version="1.3.1 (91b66b0783, 2023-11-16, custom)"
   sodipodi:docname="numeral-0.svg"
   inkscape:export-filename="0.png"
   inkscape:export-xdpi="96"
   inkscape:export-ydpi="96"
   xmlns:inkscape="http://www.inkscape.org/namespaces/inkscape"
   xmlns:sodipodi="http://sodipodi.sourceforge.net/DTD/sodipodi-0.dtd"
   xmlns="http://www.w3.org/2000/svg"
   xmlns:svg="http://www.w3.org/2000/svg">
  <sodipodi:namedview
     id="namedview137"
     pagecolor="#505050"
     bordercolor="#ffffff"
     borderopacity="1"
     inkscape:showpageshadow="0"
     inkscape:pageopacity="0"
     inkscape:pagecheckerboard="1"
     inkscape:deskcolor="#505050"
     inkscape:document-units="px"
     showgrid="false"
     inkscape:zoom="8.2747365"
     inkscape:cx="33.717086"
     inkscape:cy="28.157996"
     inkscape:window-width="1920"
     inkscape:window-height="1004"
     inkscape:window-x="0"
     inkscape:window-y="0"
     inkscape:window-maximized="1"
     inkscape:current-layer="layer1" />
  <defs
     id="defs132">
    <filter
       style="color-interpolation-filters:sRGB"
       inkscape:label="Drop Shadow"
       id="filter4132"
       x="-0.13846154"
       y="-0.094523078"
       width="1.2769231"
       height="1.1890462">
      <feFlood
         flood-opacity="0.80401529636711278"
         flood-color="rgb(0,0,0)"
         result="flood"
         id="feFlood4122" />
      <feComposite
         in="flood"
         in2="SourceGraphic"
         operator="in"
         result="composite1"
         id="feComposite4124" />
      <feGaussianBlur
         in="composite1"
         stdDeviation="3"
         result="blur"
         id="feGaussianBlur4126" />
      <feOffset
         dx="0"
         dy="0"
         result="offset"
         id="feOffset4128" />
      <feComposite
         in="SourceGraphic"
         in2="offset"
         operator="over"
         result="composite2"
         id="feComposite4130" />
    </filter>
  </defs>
  <g
     inkscape:label="Layer 1"
     inkscape:groupmode="layer"
     id="layer1">
    <path
       style="font-weight:bold;font-size:104px;line-height:1;font-family:'Arial Rounded MT Bold';-inkscape-font-specification:'Arial Rounded MT Bold,  Bold';text-align:center;baseline-shift:baseline;text-anchor:middle;fill:#ffffff;stroke-width:0;filter:url(#filter4132)"
       d="m 74,48.40625 q 0,8.328125 -1.015625,14.320312 -1.015625,5.992188 -3.757813,10.867188 -3.453125,5.992187 -8.9375,9.242187 -5.484375,3.25 -12.1875,3.25 -7.71875,0 -13.863281,-4.367187 Q 28.144531,77.351562 25.046875,69.632812 23.472656,65.417969 22.710937,60.339844 22,55.210937 22,49.269531 q 0,-7.667969 0.8125,-13.8125 0.8125,-6.144531 2.539062,-10.5625 2.996094,-7.3125 8.683594,-11.121093 5.738281,-3.8593755 13.660156,-3.8593755 5.230469,0 9.496094,1.7265625 4.265625,1.675781 7.464844,4.976562 3.25,3.25 5.484375,8.074219 Q 74,33.070312 74,48.40625 Z M 60.085937,47.390625 q 0,-9.292969 -1.117187,-15.183594 -1.117188,-5.941406 -3.757813,-8.9375 -2.640625,-3.046875 -7.3125,-3.046875 -6.703125,0 -9.34375,6.753906 -2.589843,6.753907 -2.589843,20.820313 0,9.546875 1.117187,15.640625 1.117188,6.09375 3.757813,9.242187 2.640625,3.097657 7.160156,3.097657 4.671875,0 7.3125,-3.25 2.640625,-3.25 3.707031,-9.292969 1.066406,-6.042969 1.066406,-15.84375 z"
       id="text334"
       aria-label="0" />
  </g>
</svg>
