<?xml version="1.0" encoding="UTF-8" standalone="no"?>
<!-- Created with Inkscape (http://www.inkscape.org/) -->

<svg
   width="96"
   height="96"
   viewBox="0 0 96 96"
   version="1.1"
   id="svg135"
   inkscape:version="1.3.1 (91b66b0783, 2023-11-16, custom)"
   sodipodi:docname="numeral-6.svg"
   inkscape:export-filename="6.png"
   inkscape:export-xdpi="96"
   inkscape:export-ydpi="96"
   xmlns:inkscape="http://www.inkscape.org/namespaces/inkscape"
   xmlns:sodipodi="http://sodipodi.sourceforge.net/DTD/sodipodi-0.dtd"
   xmlns="http://www.w3.org/2000/svg"
   xmlns:svg="http://www.w3.org/2000/svg">
  <sodipodi:namedview
     id="namedview137"
     pagecolor="#505050"
     bordercolor="#ffffff"
     borderopacity="1"
     inkscape:showpageshadow="0"
     inkscape:pageopacity="0"
     inkscape:pagecheckerboard="1"
     inkscape:deskcolor="#505050"
     inkscape:document-units="px"
     showgrid="false"
     inkscape:zoom="5.8511223"
     inkscape:cx="21.363423"
     inkscape:cy="47.512252"
     inkscape:window-width="1920"
     inkscape:window-height="1004"
     inkscape:window-x="0"
     inkscape:window-y="0"
     inkscape:window-maximized="1"
     inkscape:current-layer="layer1" />
  <defs
     id="defs132">
    <filter
       style="color-interpolation-filters:sRGB"
       inkscape:label="Drop Shadow"
       id="filter4132"
       x="-0.13541988"
       y="-0.094523078"
       width="1.2708398"
       height="1.1890462">
      <feFlood
         flood-opacity="0.80401529636711278"
         flood-color="rgb(0,0,0)"
         result="flood"
         id="feFlood4122" />
      <feComposite
         in="flood"
         in2="SourceGraphic"
         operator="in"
         result="composite1"
         id="feComposite4124" />
      <feGaussianBlur
         in="composite1"
         stdDeviation="3"
         result="blur"
         id="feGaussianBlur4126" />
      <feOffset
         dx="0"
         dy="0"
         result="offset"
         id="feOffset4128" />
      <feComposite
         in="SourceGraphic"
         in2="offset"
         operator="over"
         result="composite2"
         id="feComposite4130" />
    </filter>
  </defs>
  <g
     inkscape:label="Layer 1"
     inkscape:groupmode="layer"
     id="layer1">
    <path
       style="font-weight:bold;font-size:104px;line-height:1;font-family:'Arial Rounded MT Bold';-inkscape-font-specification:'Arial Rounded MT Bold,  Bold';text-align:center;baseline-shift:baseline;text-anchor:middle;fill:#ffffff;stroke-width:0;filter:url(#filter4132)"
       d="m 35.482422,44.546875 q 3.453125,-4.113281 7.515625,-6.09375 4.0625,-1.980469 9.089844,-1.980469 4.824218,0 8.886718,1.828125 4.113282,1.777344 7.160157,5.128906 3.097656,3.300782 4.773437,7.820313 1.675781,4.519531 1.675781,9.445312 0,7.160157 -3.300781,13 -3.25,5.839844 -9.140625,9.140625 -5.839844,3.25 -13.253906,3.25 -8.53125,0 -14.726563,-4.164062 -6.195312,-4.164063 -9.496093,-12.289063 -3.25,-8.175781 -3.25,-19.957031 0,-9.597656 1.980468,-17.164062 1.980469,-7.566407 5.6875,-12.542969 3.707032,-4.976562 8.988282,-7.515625 5.28125,-2.5390625 12.035156,-2.5390625 6.5,0 11.425781,2.5390625 4.976563,2.539063 7.464844,6.296875 2.539062,3.757812 2.539062,7.210937 0,2.082032 -1.574218,3.808594 -1.574219,1.675781 -4.011719,1.675781 -2.132813,0 -3.960938,-1.320312 -1.828125,-1.371094 -2.691406,-3.757813 -1.167969,-3.046875 -3.707031,-4.875 -2.539063,-1.878906 -5.890625,-1.878906 -2.691406,0 -5.382813,1.574219 -2.640625,1.523437 -4.46875,4.164062 -3.707031,5.382813 -4.367187,19.195313 z m 13.710937,31.535156 q 5.128907,0 8.480469,-4.164062 3.351563,-4.214844 3.351563,-11.019532 0,-4.621093 -1.574219,-7.921875 -1.574219,-3.351562 -4.316406,-5.078125 -2.742188,-1.777343 -6.042969,-1.777343 -3.148438,0 -6.042969,1.675781 -2.84375,1.675781 -4.621094,4.875 -1.726562,3.148437 -1.726562,7.414062 0,6.855469 3.554687,11.425782 3.554688,4.570312 8.9375,4.570312 z"
       id="text334"
       aria-label="6" />
  </g>
</svg>
