<?xml version="1.0" encoding="UTF-8" standalone="no"?>
<!-- Created with Inkscape (http://www.inkscape.org/) -->

<svg
   width="56"
   height="112"
   viewBox="0 0 56 112"
   version="1.1"
   id="svg135"
   inkscape:version="1.3.1 (91b66b0783, 2023-11-16, custom)"
   sodipodi:docname="numeral-9.svg"
   inkscape:export-filename="numeral-9.png"
   inkscape:export-xdpi="96"
   inkscape:export-ydpi="96"
   xml:space="preserve"
   xmlns:inkscape="http://www.inkscape.org/namespaces/inkscape"
   xmlns:sodipodi="http://sodipodi.sourceforge.net/DTD/sodipodi-0.dtd"
   xmlns="http://www.w3.org/2000/svg"
   xmlns:svg="http://www.w3.org/2000/svg"><sodipodi:namedview
     id="namedview137"
     pagecolor="#505050"
     bordercolor="#ffffff"
     borderopacity="1"
     inkscape:showpageshadow="0"
     inkscape:pageopacity="0"
     inkscape:pagecheckerboard="1"
     inkscape:deskcolor="#505050"
     inkscape:document-units="px"
     showgrid="false"
     inkscape:zoom="5.8511223"
     inkscape:cx="28.71244"
     inkscape:cy="56.741251"
     inkscape:window-width="1920"
     inkscape:window-height="1004"
     inkscape:window-x="0"
     inkscape:window-y="0"
     inkscape:window-maximized="1"
     inkscape:current-layer="layer1" /><defs
     id="defs132"><filter
       style="color-interpolation-filters:sRGB;"
       inkscape:label="Drop Shadow"
       id="filter1317"
       x="-0.2082837"
       y="-0.15056877"
       width="1.4165674"
       height="1.3429622"><feFlood
         flood-opacity="0.59999999999999998"
         flood-color="rgb(0,0,0)"
         result="flood"
         id="feFlood1307" /><feComposite
         in="flood"
         in2="SourceGraphic"
         operator="in"
         result="composite1"
         id="feComposite1309" /><feGaussianBlur
         in="composite1"
         stdDeviation="3"
         result="blur"
         id="feGaussianBlur1311" /><feOffset
         dx="0"
         dy="2"
         result="offset"
         id="feOffset1313" /><feComposite
         in="SourceGraphic"
         in2="offset"
         operator="over"
         result="composite2"
         id="feComposite1315" /></filter></defs><g
     inkscape:label="Layer 1"
     inkscape:groupmode="layer"
     id="layer1"><path
       d="M 27.511338,8.0000017 C 17.420429,7.9318199 10.715883,14.863638 10.715883,23.954547 c 0.02273,8.772727 6.272728,15.113637 14.431818,15.113637 5.022728,0 9.386364,-2.431819 11.636364,-6.431819 h 0.318182 c -0.02273,9.954546 -3.636364,15.886364 -10.068182,15.886364 -4.022727,0 -6.727273,-2.318182 -7.568182,-6.022727 h -8.295454 c 0.954545,7.704545 7.045454,13.318182 15.863636,13.318182 11.159091,0 18.272727,-9.318182 18.25,-25.34091 C 45.261338,13.522729 36.443156,8.0454563 27.511338,8.0000017 Z m 0.02273,6.8181823 c 4.977273,0 8.636364,4.136363 8.636364,8.886363 0.02273,4.818182 -3.818182,8.954546 -8.727273,8.954546 -4.954545,0 -8.522727,-3.909091 -8.545455,-8.886364 0,-5 3.704546,-8.954545 8.636364,-8.954545 z"
       style="font-size:64px;line-height:1;font-family:Inter;-inkscape-font-specification:'Inter Semi-Bold';text-align:center;baseline-shift:baseline;text-anchor:middle;display:inline;fill:#ffffff;stroke-width:0;filter:url(#filter1317);font-weight:600"
       id="path3514"
       transform="translate(0,2.0004968)" /></g></svg>
