<?xml version="1.0" encoding="UTF-8" standalone="no"?>
<!-- Created with Inkscape (http://www.inkscape.org/) -->

<svg
   width="56"
   height="112"
   viewBox="0 0 56 112"
   version="1.1"
   id="svg135"
   inkscape:version="1.3.1 (91b66b0783, 2023-11-16, custom)"
   sodipodi:docname="numeral-8.svg"
   inkscape:export-filename="numeral-8.png"
   inkscape:export-xdpi="96"
   inkscape:export-ydpi="96"
   xml:space="preserve"
   xmlns:inkscape="http://www.inkscape.org/namespaces/inkscape"
   xmlns:sodipodi="http://sodipodi.sourceforge.net/DTD/sodipodi-0.dtd"
   xmlns="http://www.w3.org/2000/svg"
   xmlns:svg="http://www.w3.org/2000/svg"><sodipodi:namedview
     id="namedview137"
     pagecolor="#505050"
     bordercolor="#ffffff"
     borderopacity="1"
     inkscape:showpageshadow="0"
     inkscape:pageopacity="0"
     inkscape:pagecheckerboard="1"
     inkscape:deskcolor="#505050"
     inkscape:document-units="px"
     showgrid="false"
     inkscape:zoom="8.2747365"
     inkscape:cx="7.0092866"
     inkscape:cy="49.910955"
     inkscape:window-width="1920"
     inkscape:window-height="1004"
     inkscape:window-x="0"
     inkscape:window-y="0"
     inkscape:window-maximized="1"
     inkscape:current-layer="layer1" /><defs
     id="defs132"><filter
       style="color-interpolation-filters:sRGB;"
       inkscape:label="Drop Shadow"
       id="filter1317"
       x="-0.20800996"
       y="-0.15057034"
       width="1.4160199"
       height="1.3429658"><feFlood
         flood-opacity="0.59999999999999998"
         flood-color="rgb(0,0,0)"
         result="flood"
         id="feFlood1307" /><feComposite
         in="flood"
         in2="SourceGraphic"
         operator="in"
         result="composite1"
         id="feComposite1309" /><feGaussianBlur
         in="composite1"
         stdDeviation="3"
         result="blur"
         id="feGaussianBlur1311" /><feOffset
         dx="0"
         dy="2"
         result="offset"
         id="feOffset1313" /><feComposite
         in="SourceGraphic"
         in2="offset"
         operator="over"
         result="composite2"
         id="feComposite1315" /></filter></defs><g
     inkscape:label="Layer 1"
     inkscape:groupmode="layer"
     id="layer1"><path
       d="m 28.01141,55.818184 c 10.068182,0 17.272727,-5.545455 17.295454,-13.113637 -0.02273,-5.818182 -4.318181,-10.681818 -9.727272,-11.590909 v -0.318182 c 4.704545,-1.045454 7.977272,-5.272727 8,-10.318182 -0.02273,-7.15909 -6.613637,-12.4772723 -15.568182,-12.4772723 -9.022727,0 -15.613636,5.2954543 -15.590909,12.4772723 -0.02273,5.045455 3.204545,9.272728 8,10.318182 v 0.318182 c -5.5,0.909091 -9.75,5.772727 -9.727273,11.590909 -0.02273,7.568182 7.159091,13.113637 17.318182,13.113637 z m 0,-6.5 c -5.272727,0 -8.681818,-2.909091 -8.636364,-7.204546 -0.04545,-4.454545 3.613637,-7.613636 8.636364,-7.613636 4.954545,0 8.590909,3.181818 8.636364,7.613636 -0.04545,4.295455 -3.431819,7.204546 -8.636364,7.204546 z m 0,-21.204546 c -4.318182,0 -7.409091,-2.795454 -7.363636,-6.840909 -0.04545,-4 2.954545,-6.681818 7.363636,-6.681818 4.340909,0 7.318182,2.681818 7.363636,6.681818 -0.04545,4.068182 -3.113636,6.840909 -7.363636,6.840909 z"
       style="font-size:64px;line-height:1;font-family:Inter;-inkscape-font-specification:'Inter Semi-Bold';text-align:center;baseline-shift:baseline;text-anchor:middle;display:inline;fill:#ffffff;stroke-width:0;filter:url(#filter1317);font-weight:600"
       id="path3370"
       transform="translate(0,1.9999979)" /></g></svg>
