<?xml version="1.0" encoding="UTF-8" standalone="no"?>
<!-- Created with Inkscape (http://www.inkscape.org/) -->

<svg
   width="56"
   height="112"
   viewBox="0 0 56 112"
   version="1.1"
   id="svg135"
   inkscape:version="1.3.1 (91b66b0783, 2023-11-16, custom)"
   sodipodi:docname="numeral-6.svg"
   inkscape:export-filename="numeral-6.png"
   inkscape:export-xdpi="96"
   inkscape:export-ydpi="96"
   xml:space="preserve"
   xmlns:inkscape="http://www.inkscape.org/namespaces/inkscape"
   xmlns:sodipodi="http://sodipodi.sourceforge.net/DTD/sodipodi-0.dtd"
   xmlns="http://www.w3.org/2000/svg"
   xmlns:svg="http://www.w3.org/2000/svg"><sodipodi:namedview
     id="namedview137"
     pagecolor="#505050"
     bordercolor="#ffffff"
     borderopacity="1"
     inkscape:showpageshadow="0"
     inkscape:pageopacity="0"
     inkscape:pagecheckerboard="1"
     inkscape:deskcolor="#505050"
     inkscape:document-units="px"
     showgrid="false"
     inkscape:zoom="11.702245"
     inkscape:cx="32.814218"
     inkscape:cy="41.530494"
     inkscape:window-width="1920"
     inkscape:window-height="1004"
     inkscape:window-x="0"
     inkscape:window-y="0"
     inkscape:window-maximized="1"
     inkscape:current-layer="layer1" /><defs
     id="defs132"><filter
       style="color-interpolation-filters:sRGB;"
       inkscape:label="Drop Shadow"
       id="filter1317"
       x="-0.20842042"
       y="-0.15056877"
       width="1.4168408"
       height="1.3429622"><feFlood
         flood-opacity="0.59999999999999998"
         flood-color="rgb(0,0,0)"
         result="flood"
         id="feFlood1307" /><feComposite
         in="flood"
         in2="SourceGraphic"
         operator="in"
         result="composite1"
         id="feComposite1309" /><feGaussianBlur
         in="composite1"
         stdDeviation="3"
         result="blur"
         id="feGaussianBlur1311" /><feOffset
         dx="0"
         dy="2"
         result="offset"
         id="feOffset1313" /><feComposite
         in="SourceGraphic"
         in2="offset"
         operator="over"
         result="composite2"
         id="feComposite1315" /></filter></defs><g
     inkscape:label="Layer 1"
     inkscape:groupmode="layer"
     id="layer1"><path
       d="m 28.499993,55.818184 c 10.045454,0.06818 16.795454,-6.84091 16.772727,-16.045455 0.02273,-8.795455 -6.25,-15.159091 -14.409091,-15.159091 -5,0 -9.409091,2.431818 -11.636364,6.431818 h -0.318182 c 0.02273,-9.795454 3.613637,-15.75 10.068182,-15.75 4,0 6.704546,2.318182 7.568182,5.886364 h 8.295455 c -1,-7.522727 -7.068182,-13.1818183 -15.863637,-13.1818183 -11.181818,0 -18.25,9.3181823 -18.25,25.2272723 -0.02273,17.068182 8.840909,22.545455 17.772728,22.59091 z m -0.04546,-6.818182 c -4.977273,0 -8.613636,-4.113637 -8.636364,-8.977273 0.04546,-4.886364 3.818182,-8.977273 8.75,-8.977273 4.931819,0 8.545455,3.909091 8.522728,8.909091 0.02273,5.090909 -3.704546,9.045455 -8.636364,9.045455 z"
       style="font-size:64px;line-height:1;font-family:Inter;-inkscape-font-specification:'Inter Semi-Bold';text-align:center;baseline-shift:baseline;text-anchor:middle;display:inline;fill:#ffffff;stroke-width:0;filter:url(#filter1317);font-weight:600"
       id="path3070"
       transform="translate(0,1.9999984)" /></g></svg>
