<?xml version="1.0" encoding="UTF-8" standalone="no"?>
<!-- Created with Inkscape (http://www.inkscape.org/) -->

<svg
   width="56"
   height="112"
   viewBox="0 0 56 112"
   version="1.1"
   id="svg135"
   inkscape:version="1.3.1 (91b66b0783, 2023-11-16, custom)"
   sodipodi:docname="numeral-3.svg"
   inkscape:export-filename="numeral-3.png"
   inkscape:export-xdpi="96"
   inkscape:export-ydpi="96"
   xml:space="preserve"
   xmlns:inkscape="http://www.inkscape.org/namespaces/inkscape"
   xmlns:sodipodi="http://sodipodi.sourceforge.net/DTD/sodipodi-0.dtd"
   xmlns="http://www.w3.org/2000/svg"
   xmlns:svg="http://www.w3.org/2000/svg"><sodipodi:namedview
     id="namedview137"
     pagecolor="#505050"
     bordercolor="#ffffff"
     borderopacity="1"
     inkscape:showpageshadow="0"
     inkscape:pageopacity="0"
     inkscape:pagecheckerboard="1"
     inkscape:deskcolor="#505050"
     inkscape:document-units="px"
     showgrid="false"
     inkscape:zoom="5.8511223"
     inkscape:cx="28.71244"
     inkscape:cy="15.723479"
     inkscape:window-width="1920"
     inkscape:window-height="1004"
     inkscape:window-x="0"
     inkscape:window-y="0"
     inkscape:window-maximized="1"
     inkscape:current-layer="layer1" /><defs
     id="defs132"><filter
       style="color-interpolation-filters:sRGB;"
       inkscape:label="Drop Shadow"
       id="filter1317"
       x="-0.21021833"
       y="-0.15057034"
       width="1.4204367"
       height="1.3429658"><feFlood
         flood-opacity="0.59999999999999998"
         flood-color="rgb(0,0,0)"
         result="flood"
         id="feFlood1307" /><feComposite
         in="flood"
         in2="SourceGraphic"
         operator="in"
         result="composite1"
         id="feComposite1309" /><feGaussianBlur
         in="composite1"
         stdDeviation="3"
         result="blur"
         id="feGaussianBlur1311" /><feOffset
         dx="0"
         dy="2"
         result="offset"
         id="feOffset1313" /><feComposite
         in="SourceGraphic"
         in2="offset"
         operator="over"
         result="composite2"
         id="feComposite1315" /></filter></defs><g
     inkscape:label="Layer 1"
     inkscape:groupmode="layer"
     id="layer1"><path
       d="m 27.94313,55.818184 c 9.954545,0 17.204545,-5.704546 17.181818,-13.568182 0.02273,-5.818182 -3.613637,-10 -10.136364,-10.931818 v -0.363637 c 5.045455,-1.090909 8.431818,-4.840909 8.409091,-10.068182 0.02273,-7.090909 -6.022727,-12.8863633 -15.318182,-12.8863633 -9.045454,0 -16.045454,5.3863633 -16.227272,13.1818183 h 8.113636 c 0.136364,-3.909091 3.772727,-6.340909 8.068182,-6.340909 4.340909,0 7.227272,2.636363 7.204545,6.545454 0.02273,4.068182 -3.340909,6.772728 -8.159091,6.772728 h -4.113636 v 6.5 h 4.113636 c 5.886364,0 9.386364,2.954545 9.363637,7.159091 0.02273,4.113636 -3.545455,6.931818 -8.522728,6.931818 -4.681818,0 -8.295454,-2.431818 -8.5,-6.227273 h -8.545454 c 0.227273,7.863636 7.25,13.295455 17.068182,13.295455 z"
       style="font-size:64px;line-height:1;font-family:Inter;-inkscape-font-specification:'Inter Semi-Bold';text-align:center;baseline-shift:baseline;text-anchor:middle;display:inline;fill:#ffffff;stroke-width:0;filter:url(#filter1317);font-weight:600"
       id="path2626"
       transform="translate(0,1.9999979)" /></g></svg>
