<?xml version="1.0" encoding="UTF-8" standalone="no"?>
<svg
   height="96"
   width="96"
   version="1.1"
   id="svg44"
   sodipodi:docname="judgement-legacy-yellow.svg"
   inkscape:version="1.2 (dc2aeda, 2022-05-15)"
   inkscape:export-filename="judgement-meh-legacy.png"
   inkscape:export-xdpi="96"
   inkscape:export-ydpi="96"
   xml:space="preserve"
   xmlns:inkscape="http://www.inkscape.org/namespaces/inkscape"
   xmlns:sodipodi="http://sodipodi.sourceforge.net/DTD/sodipodi-0.dtd"
   xmlns="http://www.w3.org/2000/svg"
   xmlns:svg="http://www.w3.org/2000/svg"><defs
     id="defs48"><filter
       style="color-interpolation-filters:sRGB;"
       inkscape:label="Drop Shadow"
       id="filter7635"
       x="-0.18750544"
       y="-0.18674031"
       width="1.3750109"
       height="1.3734806"><feFlood
         flood-opacity="0.6"
         flood-color="rgb(0,0,0)"
         result="flood"
         id="feFlood7625" /><feComposite
         in="flood"
         in2="SourceGraphic"
         operator="in"
         result="composite1"
         id="feComposite7627" /><feGaussianBlur
         in="composite1"
         stdDeviation="5"
         result="blur"
         id="feGaussianBlur7629" /><feOffset
         dx="0"
         dy="0"
         result="offset"
         id="feOffset7631" /><feComposite
         in="SourceGraphic"
         in2="offset"
         operator="over"
         result="composite2"
         id="feComposite7633" /></filter></defs><sodipodi:namedview
     id="namedview46"
     pagecolor="#ffffff"
     bordercolor="#000000"
     borderopacity="0.25"
     inkscape:showpageshadow="2"
     inkscape:pageopacity="0.0"
     inkscape:pagecheckerboard="0"
     inkscape:deskcolor="#d1d1d1"
     showgrid="false"
     inkscape:zoom="6.1650872"
     inkscape:cx="40.064315"
     inkscape:cy="35.847019"
     inkscape:window-width="1920"
     inkscape:window-height="1001"
     inkscape:window-x="0"
     inkscape:window-y="0"
     inkscape:window-maximized="1"
     inkscape:current-layer="svg44"
     showguides="false"
     inkscape:lockguides="false" /><g
     id="g6534"
     style="fill:#ffc70f;fill-opacity:1;filter:url(#filter7635)"
     transform="translate(-0.07452984,-0.99853339)"><path
       id="path2578"
       style="display:inline;fill-opacity:1;stroke:none;stroke-width:0;stroke-dasharray:none;stroke-opacity:1"
       d="m 25.283203,31.810547 19.423828,27.65625 0.002,0.002 c 1.605164,2.253586 4.841796,2.245406 6.386719,0.01758 l 0.0039,-0.0039 19.435547,-27.671875 z m 50.005859,0.191406 -20.90625,29.763672 c -3.078137,4.438771 -9.79796,4.430925 -12.935546,0.01953 l -0.0039,-0.0039 C 34.487894,51.877437 27.532296,41.973649 20.576172,32.070312 c -3.948217,1.168172 -5.898547,6.051141 -3.359375,9.769532 l 25.695312,36.623047 c 2.5252,3.554432 7.826991,3.554432 10.289063,0 L 78.894531,41.839844 c 2.660197,-3.81274 0.544682,-8.836602 -3.605469,-9.837891 z" /><path
       style="color:#000000;display:inline;fill-opacity:1;stroke:none;stroke-width:0;stroke-dasharray:none;stroke-opacity:1"
       d="m 78.503485,27.423763 c -52.335657,-18.2825087 -26.167828,-9.141254 0,0 z M 23.812099,18.871 h 48.251953 c 3.294887,0 5.098459,3.478367 3.164063,6.255859 l -24.128907,34.355469 -0.0039,0.0039 c -1.544925,2.22783 -4.781554,2.236008 -6.386719,-0.01758 -5.72e-4,-8.04e-4 -0.0014,-0.0012 -0.002,-0.002 L 20.603115,25.148344 C 18.710736,22.380281 20.514985,18.871 23.812099,18.871 Z"
       id="path3437-3"
       sodipodi:nodetypes="ccsscccsccs" /></g></svg>
