<?xml version="1.0" encoding="UTF-8" standalone="no"?>
<!-- Created with Inkscape (http://www.inkscape.org/) -->

<svg
   width="600"
   height="96"
   viewBox="0 0 600 96"
   version="1.1"
   id="svg5"
   inkscape:version="1.2 (dc2aeda, 2022-05-15)"
   sodipodi:docname="spinner-rpm.svg"
   xml:space="preserve"
   inkscape:export-filename="spinner-rpm.png"
   inkscape:export-xdpi="96"
   inkscape:export-ydpi="96"
   xmlns:inkscape="http://www.inkscape.org/namespaces/inkscape"
   xmlns:sodipodi="http://sodipodi.sourceforge.net/DTD/sodipodi-0.dtd"
   xmlns="http://www.w3.org/2000/svg"
   xmlns:svg="http://www.w3.org/2000/svg"><sodipodi:namedview
     id="namedview7"
     pagecolor="#505050"
     bordercolor="#ffffff"
     borderopacity="1"
     inkscape:showpageshadow="0"
     inkscape:pageopacity="0"
     inkscape:pagecheckerboard="1"
     inkscape:deskcolor="#505050"
     inkscape:document-units="px"
     showgrid="false"
     inkscape:zoom="5.8511223"
     inkscape:cx="85.539145"
     inkscape:cy="35.377828"
     inkscape:window-width="1920"
     inkscape:window-height="1001"
     inkscape:window-x="0"
     inkscape:window-y="0"
     inkscape:window-maximized="1"
     inkscape:current-layer="layer1" /><defs
     id="defs2"><filter
       style="color-interpolation-filters:sRGB;"
       inkscape:label="Drop Shadow"
       id="filter1502"
       x="-0.054696163"
       y="-0.15468751"
       width="1.1093923"
       height="1.3523438"><feFlood
         flood-opacity="0.6"
         flood-color="rgb(0,0,0)"
         result="flood"
         id="feFlood1492" /><feComposite
         in="flood"
         in2="SourceGraphic"
         operator="in"
         result="composite1"
         id="feComposite1494" /><feGaussianBlur
         in="composite1"
         stdDeviation="3"
         result="blur"
         id="feGaussianBlur1496" /><feOffset
         dx="0"
         dy="2"
         result="offset"
         id="feOffset1498" /><feComposite
         in="SourceGraphic"
         in2="offset"
         operator="over"
         result="composite2"
         id="feComposite1500" /></filter></defs><g
     inkscape:label="Layer 1"
     inkscape:groupmode="layer"
     id="layer1"><g
       aria-label="RPM"
       id="text710"
       style="font-weight:600;font-size:60px;font-family:Inter;-inkscape-font-specification:'Inter Semi-Bold';fill:#ffffff;stroke:#ffffff;stroke-width:0;filter:url(#filter1502)"
       transform="translate(0,1.0000004)"><path
         d="m 11.75,60.386364 h 7.90483 V 44.40625 h 8.053977 l 8.565341,15.980114 h 8.821023 L 35.65625,43.085228 C 40.791193,41.018466 43.497159,36.629262 43.497159,30.705966 43.497159,22.375 38.127841,16.75 28.113637,16.75 H 11.75 Z M 19.65483,37.84375 V 23.355114 h 7.244318 c 5.901989,0 8.544034,2.705966 8.544034,7.350852 0,4.644887 -2.642045,7.137784 -8.50142,7.137784 z"
         id="path724" /><path
         d="M 50.784081,60.386364 H 58.68891 V 45.642046 h 8.352273 c 10.078125,0 15.490057,-6.051137 15.490057,-14.446023 C 82.53124,22.865057 77.183228,16.75 67.147717,16.75 H 50.784081 Z M 58.68891,39.143466 V 23.355114 h 7.244318 c 5.923296,0 8.544035,3.196023 8.544035,7.840909 0,4.644886 -2.620739,7.947443 -8.501421,7.947443 z"
         id="path726" /><path
         d="m 89.391983,16.75 v 43.636364 h 7.585228 V 30.34375 h 0.404829 l 12.05966,29.914773 h 5.66761 l 12.05966,-29.850852 h 0.40483 v 29.978693 h 7.58523 V 16.75 h -9.6733 l -12.95454,31.619319 h -0.51137 L 99.065279,16.75 Z"
         id="path728" /></g></g></svg>
